<mxfile modified="2022-10-28T00:11:25.216Z" host="Electron" agent="5.0 (Windows NT 10.0; Win64; x64) AppleWebKit/537.36 (KHTML, like Gecko) draw.io/20.3.0 Chrome/104.0.5112.114 Electron/20.1.3 Safari/537.36" etag="SNWlpSeh4xBQKb7KfKIP" compressed="false" version="20.3.0" type="device">
  <diagram id="FwDR0VYam-Y5EW10f9tB" name="Information/Classification/Type">
    <mxGraphModel dx="782" dy="549" grid="1" gridSize="10" guides="1" tooltips="1" connect="1" arrows="1" fold="1" page="1" pageScale="1" pageWidth="827" pageHeight="1169" math="0" shadow="0">
      <root>
        <mxCell id="hWpg3vbtv3I1RPHXt0k--0" />
        <mxCell id="hWpg3vbtv3I1RPHXt0k--1" parent="hWpg3vbtv3I1RPHXt0k--0" />
        <mxCell id="hWpg3vbtv3I1RPHXt0k--2" value="Purpose" style="rounded=1;whiteSpace=wrap;html=1;strokeWidth=1;fontSize=10;align=center;dashed=1;absoluteArcSize=1;verticalAlign=top;fontStyle=1;arcSize=6;snapToPoint=1;container=1;collapsible=0;recursiveResize=0;" parent="hWpg3vbtv3I1RPHXt0k--1" vertex="1">
          <mxGeometry x="480" y="160" width="80" height="260" as="geometry" />
        </mxCell>
        <mxCell id="hWpg3vbtv3I1RPHXt0k--3" value="&lt;p style=&quot;line-height: 100%&quot;&gt;to enable &lt;b&gt;Decisions&lt;/b&gt;&lt;br&gt;&lt;/p&gt;" style="rounded=0;whiteSpace=wrap;html=1;strokeWidth=1;fontSize=10;align=center;" parent="hWpg3vbtv3I1RPHXt0k--2" vertex="1">
          <mxGeometry x="10" y="40" width="60" height="60" as="geometry" />
        </mxCell>
        <mxCell id="hWpg3vbtv3I1RPHXt0k--4" value="" style="shape=flexArrow;endArrow=classic;html=1;strokeWidth=1;fillColor=#ffffff;fontSize=10;endWidth=8;endSize=3;entryX=0.5;entryY=0;entryDx=0;entryDy=0;gradientColor=#ffffff;startSize=2;startWidth=8;width=6;exitX=0.5;exitY=1;exitDx=0;exitDy=0;" parent="hWpg3vbtv3I1RPHXt0k--2" source="hWpg3vbtv3I1RPHXt0k--3" target="hWpg3vbtv3I1RPHXt0k--5" edge="1">
          <mxGeometry width="50" height="50" relative="1" as="geometry">
            <mxPoint x="130" y="230" as="sourcePoint" />
            <mxPoint x="-70" y="60" as="targetPoint" />
          </mxGeometry>
        </mxCell>
        <mxCell id="hWpg3vbtv3I1RPHXt0k--5" value="&lt;p style=&quot;line-height: 100% ; font-size: 9px&quot;&gt;and &lt;br&gt;maybe collect more&amp;nbsp;info as&amp;nbsp;&lt;b&gt;Input&lt;/b&gt;&lt;br&gt;&lt;/p&gt;" style="rounded=0;whiteSpace=wrap;html=1;strokeWidth=1;fontSize=10;align=center;" parent="hWpg3vbtv3I1RPHXt0k--2" vertex="1">
          <mxGeometry x="10" y="160" width="60" height="60" as="geometry" />
        </mxCell>
        <mxCell id="hWpg3vbtv3I1RPHXt0k--6" value="Change" style="rounded=1;whiteSpace=wrap;html=1;strokeWidth=1;fontSize=10;align=center;dashed=1;absoluteArcSize=1;verticalAlign=top;fontStyle=1;arcSize=6;snapToPoint=1;recursiveResize=0;collapsible=0;container=1;" parent="hWpg3vbtv3I1RPHXt0k--1" vertex="1">
          <mxGeometry x="570" y="160" width="80" height="260" as="geometry" />
        </mxCell>
        <mxCell id="hWpg3vbtv3I1RPHXt0k--7" value="&lt;p style=&quot;line-height: 100%&quot;&gt;before&lt;br&gt;performing a &lt;i&gt;Primary&lt;/i&gt; or &lt;i&gt;Secondary&lt;/i&gt;&lt;br&gt;&lt;b&gt;Action&lt;/b&gt;&lt;br&gt;&lt;/p&gt;" style="rounded=0;whiteSpace=wrap;html=1;strokeWidth=1;fontSize=10;align=center;" parent="hWpg3vbtv3I1RPHXt0k--6" vertex="1">
          <mxGeometry x="10" y="40" width="60" height="60" as="geometry" />
        </mxCell>
        <mxCell id="hWpg3vbtv3I1RPHXt0k--8" value="&lt;p style=&quot;line-height: 100% ; font-size: 9px&quot;&gt;producing activity stream&amp;nbsp;&lt;b&gt;Data&lt;/b&gt; or new&amp;nbsp;&lt;b&gt;Input&lt;/b&gt;&lt;br&gt;&lt;/p&gt;" style="rounded=0;whiteSpace=wrap;html=1;strokeWidth=1;fontSize=10;align=center;" parent="hWpg3vbtv3I1RPHXt0k--6" vertex="1">
          <mxGeometry x="10" y="160" width="60" height="60" as="geometry" />
        </mxCell>
        <mxCell id="hWpg3vbtv3I1RPHXt0k--9" value="" style="shape=flexArrow;endArrow=classic;html=1;strokeWidth=1;fillColor=#ffffff;fontSize=10;endWidth=8;endSize=3;entryX=0.5;entryY=0;entryDx=0;entryDy=0;gradientColor=#ffffff;startSize=2;startWidth=8;width=6;exitX=0.5;exitY=1;exitDx=0;exitDy=0;" parent="hWpg3vbtv3I1RPHXt0k--6" source="hWpg3vbtv3I1RPHXt0k--7" target="hWpg3vbtv3I1RPHXt0k--8" edge="1">
          <mxGeometry width="50" height="50" relative="1" as="geometry">
            <mxPoint x="440" y="250" as="sourcePoint" />
            <mxPoint x="440" y="320" as="targetPoint" />
          </mxGeometry>
        </mxCell>
        <mxCell id="hWpg3vbtv3I1RPHXt0k--10" value="Presentation" style="rounded=1;whiteSpace=wrap;html=1;strokeWidth=1;fontSize=10;align=center;dashed=1;absoluteArcSize=1;verticalAlign=top;fontStyle=1;arcSize=6;snapToPoint=1;container=1;collapsible=0;recursiveResize=0;" parent="hWpg3vbtv3I1RPHXt0k--1" vertex="1">
          <mxGeometry x="390" y="160" width="80" height="260" as="geometry" />
        </mxCell>
        <mxCell id="hWpg3vbtv3I1RPHXt0k--11" value="&lt;p style=&quot;line-height: 90%&quot;&gt;&lt;b&gt;&lt;font style=&quot;font-size: 9px&quot;&gt;Summarised&lt;/font&gt;&lt;/b&gt;&lt;br&gt;for Consumption&lt;br&gt;as &lt;i&gt;Actual&lt;/i&gt;&amp;nbsp;&lt;i&gt;Proofs&lt;/i&gt;, and&lt;span&gt;/or&amp;nbsp;&lt;/span&gt;&lt;i&gt;Trends&lt;/i&gt;&lt;/p&gt;" style="rounded=0;whiteSpace=wrap;html=1;strokeWidth=1;fontSize=10;align=center;" parent="hWpg3vbtv3I1RPHXt0k--10" vertex="1">
          <mxGeometry x="10" y="40" width="60" height="60" as="geometry" />
        </mxCell>
        <mxCell id="hWpg3vbtv3I1RPHXt0k--12" value="" style="shape=flexArrow;endArrow=classic;html=1;strokeWidth=1;fillColor=#ffffff;fontSize=10;endWidth=8;endSize=3;gradientColor=#ffffff;startSize=2;startWidth=8;width=4;exitX=0.5;exitY=1;exitDx=0;exitDy=0;entryX=0.5;entryY=0;entryDx=0;entryDy=0;" parent="hWpg3vbtv3I1RPHXt0k--10" source="hWpg3vbtv3I1RPHXt0k--11" target="hWpg3vbtv3I1RPHXt0k--13" edge="1">
          <mxGeometry width="50" height="50" relative="1" as="geometry">
            <mxPoint x="-40" y="80" as="sourcePoint" />
            <mxPoint x="-40" y="100" as="targetPoint" />
          </mxGeometry>
        </mxCell>
        <mxCell id="hWpg3vbtv3I1RPHXt0k--13" value="&lt;p style=&quot;line-height: 100%&quot;&gt;via a formatted, templated &amp;amp; styled&amp;nbsp;&lt;br&gt;&lt;b&gt;&lt;font style=&quot;font-size: 9px&quot;&gt;Presentation&lt;/font&gt;&lt;/b&gt;&lt;/p&gt;" style="rounded=0;whiteSpace=wrap;html=1;strokeWidth=1;fontSize=10;align=center;" parent="hWpg3vbtv3I1RPHXt0k--10" vertex="1">
          <mxGeometry x="10" y="160" width="60" height="60" as="geometry" />
        </mxCell>
        <mxCell id="hWpg3vbtv3I1RPHXt0k--14" value="Retrieval" style="rounded=1;whiteSpace=wrap;html=1;strokeWidth=1;fontSize=10;align=center;dashed=1;absoluteArcSize=1;verticalAlign=top;fontStyle=1;arcSize=6;snapToPoint=1;collapsible=0;recursiveResize=0;container=1;" parent="hWpg3vbtv3I1RPHXt0k--1" vertex="1">
          <mxGeometry x="300" y="160" width="80" height="260" as="geometry" />
        </mxCell>
        <mxCell id="hWpg3vbtv3I1RPHXt0k--15" value="Persistence" style="rounded=1;whiteSpace=wrap;html=1;strokeWidth=1;fontSize=10;align=center;dashed=1;absoluteArcSize=1;verticalAlign=top;fontStyle=1;arcSize=6;snapToPoint=1;container=1;autosize=0;recursiveResize=0;collapsible=0;" parent="hWpg3vbtv3I1RPHXt0k--1" vertex="1">
          <mxGeometry x="210" y="160" width="80" height="260" as="geometry" />
        </mxCell>
        <mxCell id="hWpg3vbtv3I1RPHXt0k--16" value="Collection" style="rounded=1;whiteSpace=wrap;html=1;strokeWidth=1;fontSize=10;align=center;dashed=1;absoluteArcSize=1;verticalAlign=top;fontStyle=1;arcSize=6;snapToPoint=1;container=1;collapsible=0;" parent="hWpg3vbtv3I1RPHXt0k--1" vertex="1">
          <mxGeometry x="120" y="160" width="80" height="260" as="geometry" />
        </mxCell>
        <mxCell id="hWpg3vbtv3I1RPHXt0k--17" value="Usable&lt;br&gt;&lt;b&gt;Information &lt;/b&gt;catalog/table" style="rounded=0;whiteSpace=wrap;html=1;strokeWidth=1;fontSize=10;align=center;" parent="hWpg3vbtv3I1RPHXt0k--1" vertex="1">
          <mxGeometry x="220" y="200" width="60" height="60" as="geometry" />
        </mxCell>
        <mxCell id="hWpg3vbtv3I1RPHXt0k--18" value="Recorded, Workable&lt;br&gt;&lt;i&gt;Correct&lt;/i&gt; or &lt;i&gt;Incorrect&lt;/i&gt;&lt;br&gt;&lt;b&gt;Data&lt;/b&gt;&amp;nbsp;(logs)" style="rounded=0;whiteSpace=wrap;html=1;strokeWidth=1;fontSize=10;align=center;" parent="hWpg3vbtv3I1RPHXt0k--1" vertex="1">
          <mxGeometry x="130" y="330" width="60" height="60" as="geometry" />
        </mxCell>
        <mxCell id="hWpg3vbtv3I1RPHXt0k--19" value="&lt;p style=&quot;line-height: 90%&quot;&gt;Authorised,&lt;br&gt;Paged, Sorted, Filtered&lt;br&gt;&lt;b&gt;Projection&lt;/b&gt;s&lt;/p&gt;" style="rounded=0;whiteSpace=wrap;html=1;strokeWidth=1;fontSize=10;align=center;" parent="hWpg3vbtv3I1RPHXt0k--1" vertex="1">
          <mxGeometry x="310" y="200" width="60" height="60" as="geometry" />
        </mxCell>
        <mxCell id="hWpg3vbtv3I1RPHXt0k--20" value="&lt;p style=&quot;line-height: 120%&quot;&gt;to align with Consumers&lt;br&gt;&lt;b&gt;Perspective&lt;/b&gt;&lt;/p&gt;" style="rounded=0;whiteSpace=wrap;html=1;strokeWidth=1;fontSize=10;align=center;" parent="hWpg3vbtv3I1RPHXt0k--1" vertex="1">
          <mxGeometry x="310" y="330" width="60" height="60" as="geometry" />
        </mxCell>
        <mxCell id="hWpg3vbtv3I1RPHXt0k--21" value="&lt;p style=&quot;line-height: 90%&quot;&gt;&lt;b&gt;Synthesised&lt;/b&gt;&lt;br&gt;&lt;b&gt;Information&lt;/b&gt;&lt;br&gt;(ie JOIN Views)&lt;br&gt;&lt;/p&gt;" style="rounded=0;whiteSpace=wrap;html=1;strokeWidth=1;fontSize=10;align=center;" parent="hWpg3vbtv3I1RPHXt0k--1" vertex="1">
          <mxGeometry x="220" y="330" width="60" height="60" as="geometry" />
        </mxCell>
        <mxCell id="hWpg3vbtv3I1RPHXt0k--22" value="&lt;b&gt;Noise&lt;/b&gt;&lt;br&gt;signal stream" style="rounded=0;whiteSpace=wrap;html=1;strokeWidth=1;fontSize=10;align=center;" parent="hWpg3vbtv3I1RPHXt0k--1" vertex="1">
          <mxGeometry x="130" y="200" width="60" height="60" as="geometry" />
        </mxCell>
        <mxCell id="hWpg3vbtv3I1RPHXt0k--23" value="" style="shape=flexArrow;endArrow=classic;html=1;strokeWidth=1;fillColor=#ffffff;fontSize=10;endWidth=8;endSize=3;entryX=0.5;entryY=0;entryDx=0;entryDy=0;gradientColor=#ffffff;startSize=2;startWidth=8;width=6;exitX=0.5;exitY=1;exitDx=0;exitDy=0;" parent="hWpg3vbtv3I1RPHXt0k--1" source="hWpg3vbtv3I1RPHXt0k--22" target="hWpg3vbtv3I1RPHXt0k--18" edge="1">
          <mxGeometry width="50" height="50" relative="1" as="geometry">
            <mxPoint x="160" y="260" as="sourcePoint" />
            <mxPoint x="50" y="360" as="targetPoint" />
          </mxGeometry>
        </mxCell>
        <mxCell id="hWpg3vbtv3I1RPHXt0k--24" value="" style="shape=flexArrow;endArrow=classic;html=1;strokeWidth=1;fillColor=#ffffff;fontSize=10;endWidth=8;endSize=3;entryX=0;entryY=0.5;entryDx=0;entryDy=0;gradientColor=#ffffff;startSize=2;startWidth=8;width=6;exitX=1;exitY=0.5;exitDx=0;exitDy=0;edgeStyle=elbowEdgeStyle;" parent="hWpg3vbtv3I1RPHXt0k--1" source="hWpg3vbtv3I1RPHXt0k--18" target="hWpg3vbtv3I1RPHXt0k--17" edge="1">
          <mxGeometry width="50" height="50" relative="1" as="geometry">
            <mxPoint x="170" y="270" as="sourcePoint" />
            <mxPoint x="170" y="290" as="targetPoint" />
          </mxGeometry>
        </mxCell>
        <mxCell id="hWpg3vbtv3I1RPHXt0k--25" value="" style="shape=flexArrow;endArrow=classic;html=1;strokeWidth=1;fillColor=#ffffff;fontSize=10;endWidth=8;endSize=3;entryX=0;entryY=0.5;entryDx=0;entryDy=0;gradientColor=#ffffff;startSize=2;startWidth=8;width=6;exitX=1;exitY=0.5;exitDx=0;exitDy=0;edgeStyle=elbowEdgeStyle;" parent="hWpg3vbtv3I1RPHXt0k--1" source="hWpg3vbtv3I1RPHXt0k--21" target="hWpg3vbtv3I1RPHXt0k--19" edge="1">
          <mxGeometry width="50" height="50" relative="1" as="geometry">
            <mxPoint x="200" y="310" as="sourcePoint" />
            <mxPoint x="230" y="250" as="targetPoint" />
          </mxGeometry>
        </mxCell>
        <mxCell id="hWpg3vbtv3I1RPHXt0k--26" value="" style="shape=flexArrow;endArrow=classic;html=1;strokeWidth=1;fillColor=#ffffff;fontSize=10;endWidth=8;endSize=3;entryX=0;entryY=0.5;entryDx=0;entryDy=0;gradientColor=#ffffff;startSize=2;startWidth=8;width=6;exitX=1;exitY=0.5;exitDx=0;exitDy=0;edgeStyle=elbowEdgeStyle;" parent="hWpg3vbtv3I1RPHXt0k--1" source="hWpg3vbtv3I1RPHXt0k--20" target="hWpg3vbtv3I1RPHXt0k--11" edge="1">
          <mxGeometry width="50" height="50" relative="1" as="geometry">
            <mxPoint x="290" y="310" as="sourcePoint" />
            <mxPoint x="320" y="250" as="targetPoint" />
          </mxGeometry>
        </mxCell>
        <mxCell id="hWpg3vbtv3I1RPHXt0k--27" value="" style="shape=flexArrow;endArrow=classic;html=1;strokeWidth=1;fillColor=#ffffff;fontSize=10;endWidth=8;endSize=3;gradientColor=#ffffff;startSize=2;startWidth=8;width=6;exitX=0.5;exitY=1;exitDx=0;exitDy=0;" parent="hWpg3vbtv3I1RPHXt0k--1" source="hWpg3vbtv3I1RPHXt0k--17" target="hWpg3vbtv3I1RPHXt0k--21" edge="1">
          <mxGeometry width="50" height="50" relative="1" as="geometry">
            <mxPoint x="170" y="270" as="sourcePoint" />
            <mxPoint x="170" y="290" as="targetPoint" />
          </mxGeometry>
        </mxCell>
        <mxCell id="hWpg3vbtv3I1RPHXt0k--28" value="" style="shape=flexArrow;endArrow=classic;html=1;strokeWidth=1;fillColor=#ffffff;fontSize=10;endWidth=8;endSize=3;gradientColor=#ffffff;startSize=2;startWidth=8;width=6;exitX=0.5;exitY=1;exitDx=0;exitDy=0;entryX=0.5;entryY=0;entryDx=0;entryDy=0;" parent="hWpg3vbtv3I1RPHXt0k--1" source="hWpg3vbtv3I1RPHXt0k--19" target="hWpg3vbtv3I1RPHXt0k--20" edge="1">
          <mxGeometry width="50" height="50" relative="1" as="geometry">
            <mxPoint x="260" y="270" as="sourcePoint" />
            <mxPoint x="260" y="290" as="targetPoint" />
          </mxGeometry>
        </mxCell>
        <mxCell id="hWpg3vbtv3I1RPHXt0k--29" value="" style="shape=flexArrow;endArrow=classic;html=1;strokeWidth=1;fillColor=#ffffff;fontSize=10;endWidth=8;endSize=3;gradientColor=#ffffff;startSize=2;startWidth=8;width=6;exitX=1;exitY=0.5;exitDx=0;exitDy=0;edgeStyle=elbowEdgeStyle;" parent="hWpg3vbtv3I1RPHXt0k--1" source="hWpg3vbtv3I1RPHXt0k--5" target="hWpg3vbtv3I1RPHXt0k--7" edge="1">
          <mxGeometry width="50" height="50" relative="1" as="geometry">
            <mxPoint x="450" y="270" as="sourcePoint" />
            <mxPoint x="450" y="290" as="targetPoint" />
          </mxGeometry>
        </mxCell>
        <mxCell id="hWpg3vbtv3I1RPHXt0k--30" value="" style="shape=flexArrow;endArrow=classic;html=1;strokeWidth=1;fillColor=#ffffff;fontSize=10;endWidth=8;endSize=3;gradientColor=#ffffff;startSize=2;startWidth=8;width=6;exitX=1;exitY=0.5;exitDx=0;exitDy=0;edgeStyle=elbowEdgeStyle;" parent="hWpg3vbtv3I1RPHXt0k--1" source="hWpg3vbtv3I1RPHXt0k--13" target="hWpg3vbtv3I1RPHXt0k--3" edge="1">
          <mxGeometry width="50" height="50" relative="1" as="geometry">
            <mxPoint x="380" y="310" as="sourcePoint" />
            <mxPoint x="410" y="250" as="targetPoint" />
          </mxGeometry>
        </mxCell>
        <mxCell id="hWpg3vbtv3I1RPHXt0k--31" value="Sort / Page" style="rounded=0;whiteSpace=wrap;html=1;strokeWidth=1;fontSize=8;align=center;strokeColor=#6c8ebf;fillColor=#dae8fc;" parent="hWpg3vbtv3I1RPHXt0k--1" vertex="1">
          <mxGeometry x="660" y="160" width="60" height="10" as="geometry" />
        </mxCell>
        <mxCell id="hWpg3vbtv3I1RPHXt0k--32" value="&lt;b&gt;C&lt;/b&gt;reate/Add.New" style="rounded=0;whiteSpace=wrap;html=1;strokeWidth=1;fontSize=8;align=center;strokeColor=#666666;fillColor=#f5f5f5;fontColor=#333333;" parent="hWpg3vbtv3I1RPHXt0k--1" vertex="1">
          <mxGeometry x="660" y="210" width="60" height="10" as="geometry" />
        </mxCell>
        <mxCell id="hWpg3vbtv3I1RPHXt0k--33" value="Un/Select (Single/Multiple)" style="rounded=0;whiteSpace=wrap;html=1;strokeWidth=1;fontSize=8;align=center;strokeColor=#6c8ebf;fillColor=#dae8fc;" parent="hWpg3vbtv3I1RPHXt0k--1" vertex="1">
          <mxGeometry x="660" y="170" width="60" height="20" as="geometry" />
        </mxCell>
        <mxCell id="hWpg3vbtv3I1RPHXt0k--34" value="&lt;p style=&quot;line-height: 80% ; font-size: 8px&quot;&gt;&lt;span style=&quot;line-height: 100%&quot;&gt;Request&lt;/span&gt;&lt;br&gt;&lt;span style=&quot;line-height: 100%&quot;&gt;(Permissions, Correction, etc.)&lt;/span&gt;&lt;/p&gt;" style="rounded=0;whiteSpace=wrap;html=1;strokeWidth=1;fontSize=10;align=center;strokeColor=#d6b656;fillColor=#fff2cc;" parent="hWpg3vbtv3I1RPHXt0k--1" vertex="1">
          <mxGeometry x="660" y="330" width="60" height="30" as="geometry" />
        </mxCell>
        <mxCell id="hWpg3vbtv3I1RPHXt0k--35" value="" style="shape=flexArrow;endArrow=classic;html=1;strokeWidth=1;fontSize=10;endWidth=8;endSize=3;entryX=0.5;entryY=1;entryDx=0;entryDy=0;startSize=2;startWidth=8;width=6;exitX=0.5;exitY=1;exitDx=0;exitDy=0;strokeColor=#999999;" parent="hWpg3vbtv3I1RPHXt0k--1" source="hWpg3vbtv3I1RPHXt0k--8" target="hWpg3vbtv3I1RPHXt0k--16" edge="1">
          <mxGeometry width="50" height="50" relative="1" as="geometry">
            <mxPoint x="1010" y="460" as="sourcePoint" />
            <mxPoint x="1010" y="510" as="targetPoint" />
            <Array as="points">
              <mxPoint x="610" y="440" />
              <mxPoint x="160" y="440" />
            </Array>
          </mxGeometry>
        </mxCell>
        <mxCell id="hWpg3vbtv3I1RPHXt0k--36" value="" style="shape=flexArrow;endArrow=classic;html=1;strokeWidth=1;fillColor=#ffffff;fontSize=10;endWidth=8;endSize=3;entryX=0.5;entryY=1;entryDx=0;entryDy=0;gradientColor=#ffffff;startSize=2;startWidth=8;width=6;exitX=0.5;exitY=1;exitDx=0;exitDy=0;strokeColor=#999999;" parent="hWpg3vbtv3I1RPHXt0k--1" source="hWpg3vbtv3I1RPHXt0k--8" target="hWpg3vbtv3I1RPHXt0k--15" edge="1">
          <mxGeometry width="50" height="50" relative="1" as="geometry">
            <mxPoint x="620" y="400" as="sourcePoint" />
            <mxPoint x="170.0000000000001" y="430" as="targetPoint" />
            <Array as="points">
              <mxPoint x="610" y="440" />
              <mxPoint x="250" y="440" />
            </Array>
          </mxGeometry>
        </mxCell>
        <mxCell id="hWpg3vbtv3I1RPHXt0k--37" value="&lt;b&gt;R&lt;/b&gt;etrieve/View" style="rounded=0;whiteSpace=wrap;html=1;strokeWidth=1;fontSize=8;align=center;strokeColor=#666666;fillColor=#f5f5f5;fontColor=#333333;" parent="hWpg3vbtv3I1RPHXt0k--1" vertex="1">
          <mxGeometry x="660" y="220" width="60" height="10" as="geometry" />
        </mxCell>
        <mxCell id="hWpg3vbtv3I1RPHXt0k--38" value="Change State (&lt;b&gt;D&lt;/b&gt;elete, Archive, etc)" style="rounded=0;whiteSpace=wrap;html=1;strokeWidth=1;fontSize=8;align=center;strokeColor=#666666;fillColor=#f5f5f5;fontColor=#333333;" parent="hWpg3vbtv3I1RPHXt0k--1" vertex="1">
          <mxGeometry x="660" y="240" width="60" height="30" as="geometry" />
        </mxCell>
        <mxCell id="hWpg3vbtv3I1RPHXt0k--39" value="&lt;b&gt;U&lt;/b&gt;pdate" style="rounded=0;whiteSpace=wrap;html=1;strokeWidth=1;fontSize=8;align=center;strokeColor=#666666;fillColor=#f5f5f5;fontColor=#333333;" parent="hWpg3vbtv3I1RPHXt0k--1" vertex="1">
          <mxGeometry x="660" y="230" width="60" height="10" as="geometry" />
        </mxCell>
        <mxCell id="hWpg3vbtv3I1RPHXt0k--40" value="Update Metadata (Tags)" style="rounded=0;whiteSpace=wrap;html=1;strokeWidth=1;fontSize=8;align=center;strokeColor=#d6b656;fillColor=#fff2cc;" parent="hWpg3vbtv3I1RPHXt0k--1" vertex="1">
          <mxGeometry x="660" y="280" width="60" height="20" as="geometry" />
        </mxCell>
        <mxCell id="hWpg3vbtv3I1RPHXt0k--41" value="Invite/Permit" style="rounded=0;whiteSpace=wrap;html=1;strokeWidth=1;fontSize=8;align=center;strokeColor=#d6b656;fillColor=#fff2cc;" parent="hWpg3vbtv3I1RPHXt0k--1" vertex="1">
          <mxGeometry x="660" y="360" width="60" height="10" as="geometry" />
        </mxCell>
        <mxCell id="hWpg3vbtv3I1RPHXt0k--42" value="Subscribe,&lt;br&gt;Signal/Send" style="rounded=0;whiteSpace=wrap;html=1;strokeWidth=1;fontSize=8;align=center;strokeColor=#d6b656;fillColor=#fff2cc;" parent="hWpg3vbtv3I1RPHXt0k--1" vertex="1">
          <mxGeometry x="660" y="310" width="60" height="20" as="geometry" />
        </mxCell>
        <mxCell id="hWpg3vbtv3I1RPHXt0k--43" value="Attach (Child)" style="rounded=0;whiteSpace=wrap;html=1;strokeWidth=1;fontSize=8;align=center;strokeColor=#d6b656;fillColor=#fff2cc;" parent="hWpg3vbtv3I1RPHXt0k--1" vertex="1">
          <mxGeometry x="660" y="380" width="60" height="10" as="geometry" />
        </mxCell>
        <mxCell id="hWpg3vbtv3I1RPHXt0k--44" value="Associate/Link" style="rounded=0;whiteSpace=wrap;html=1;strokeWidth=1;fontSize=8;align=center;strokeColor=#d6b656;fillColor=#fff2cc;" parent="hWpg3vbtv3I1RPHXt0k--1" vertex="1">
          <mxGeometry x="660" y="390" width="60" height="10" as="geometry" />
        </mxCell>
        <mxCell id="hWpg3vbtv3I1RPHXt0k--45" value="...&lt;i&gt;Child Records&lt;/i&gt;" style="rounded=0;whiteSpace=wrap;html=1;strokeWidth=1;fontSize=8;align=center;strokeColor=#d79b00;fillColor=#ffe6cc;" parent="hWpg3vbtv3I1RPHXt0k--1" vertex="1">
          <mxGeometry x="660" y="410" width="60" height="10" as="geometry" />
        </mxCell>
        <mxCell id="hWpg3vbtv3I1RPHXt0k--46" value="" style="endArrow=none;html=1;strokeColor=#999999;strokeWidth=1;fillColor=none;gradientColor=#ffffff;fontSize=8;" parent="hWpg3vbtv3I1RPHXt0k--1" edge="1">
          <mxGeometry width="50" height="50" relative="1" as="geometry">
            <mxPoint x="660" y="200" as="sourcePoint" />
            <mxPoint x="720" y="200" as="targetPoint" />
          </mxGeometry>
        </mxCell>
        <mxCell id="hWpg3vbtv3I1RPHXt0k--47" value="Cancel/Back" style="rounded=0;whiteSpace=wrap;html=1;strokeWidth=1;fontSize=8;align=center;" parent="hWpg3vbtv3I1RPHXt0k--1" vertex="1">
          <mxGeometry x="660" y="430" width="60" height="10" as="geometry" />
        </mxCell>
        <mxCell id="hWpg3vbtv3I1RPHXt0k--48" value="Comment" style="rounded=0;whiteSpace=wrap;html=1;strokeWidth=1;fontSize=8;align=center;strokeColor=#d6b656;fillColor=#fff2cc;" parent="hWpg3vbtv3I1RPHXt0k--1" vertex="1">
          <mxGeometry x="660" y="370" width="60" height="10" as="geometry" />
        </mxCell>
        <mxCell id="hWpg3vbtv3I1RPHXt0k--49" value="&lt;font style=&quot;font-size: 12px&quot;&gt;Diagram: Information - Information Type Sequence&amp;nbsp;- HL&lt;/font&gt;" style="text;strokeColor=none;fillColor=none;html=1;fontSize=12;fontStyle=2;verticalAlign=middle;align=left;shadow=0;glass=0;comic=0;opacity=30;fontColor=#808080;" parent="hWpg3vbtv3I1RPHXt0k--1" vertex="1">
          <mxGeometry x="120" y="465" width="560" height="20" as="geometry" />
        </mxCell>
      </root>
    </mxGraphModel>
  </diagram>
</mxfile>
